# xmcd CD database file
#
# Track frame offsets:
#	150
#	29498
#	60370
#	89519
#	119364
#	140956
#	166619
#	203500
#	230553
#	253873
#	273099
#
# Disc length: 3868 seconds
#
# Revision: 0
# Processed by: cddbd v1.5.2PL0 Copyright (c) Steve Scherf et al.
# Submitted via: CDex 1.81
#
DISCID=960f1a0b
DTITLE=sammy's Jubilee New Orleans Jazz Band - Plays for George Lewis CD 1
DYEAR=2000
DGENRE=Jazz
TTITLE0=Fidgety feet
TTITLE1=When you wore a tulip and i wore a big red rose
TTITLE2=Jerusalem Blues
TTITLE3=Down in Honky Tonk Town
TTITLE4=Willie The Weeper
TTITLE5=One Sweet Letter from You
TTITLE6=Medley: Nobody knows the way I feel this morning - Blues for Jimmie - Old rugged cross
TTITLE7=The world is Waiting for The Sunrise
TTITLE8=Lead Me Saviour
TTITLE9=Hig H Society Rag
TTITLE10=Till we Meet Again
EXTD=YEAR: 2000
EXTT0=
EXTT1=
EXTT2=
EXTT3=
EXTT4=
EXTT5=
EXTT6=
EXTT7=
EXTT8=
EXTT9=
EXTT10=
PLAYORDER=
